<svg xmlns="http://www.w3.org/2000/svg" viewBox="0 0 400 500" width="400" height="500">
  <defs>
    <radialGradient id="bgedwardelric" cx="200" cy="190" r="320" gradientUnits="userSpaceOnUse">
      <stop offset="0%" stop-color="#3d1500"/>
      <stop offset="100%" stop-color="#180200"/>
    </radialGradient>
    <radialGradient id="glowedwardelric" cx="200" cy="240" r="210" gradientUnits="userSpaceOnUse">
      <stop offset="0%" stop-color="#fbbf24" stop-opacity="0.14"/>
      <stop offset="100%" stop-color="#fbbf24" stop-opacity="0"/>
    </radialGradient>
    <filter id="bluredwardelric" x="-50%" y="-50%" width="200%" height="200%">
      <feGaussianBlur stdDeviation="10"/>
    </filter>
  </defs>

  <!-- Background -->
  <rect width="400" height="500" fill="#180200"/>
  <rect width="400" height="500" fill="url(#bgedwardelric)"/>

  <!-- Character decoration -->
  <circle cx="200" cy="240" r="158" fill="none" stroke="#fbbf24" stroke-width="0.6" stroke-opacity="0.2"/>
  <circle cx="200" cy="240" r="134.3" fill="none" stroke="#fbbf24" stroke-width="0.35" stroke-opacity="0.12"/>
  <polygon points="200.0,123.1 301.3,298.5 98.7,298.5" fill="none" stroke="#fbbf24" stroke-width="0.7" stroke-opacity="0.25"/>
  <polygon points="200.0,356.9 98.7,181.5 301.3,181.5" fill="none" stroke="#fbbf24" stroke-width="0.7" stroke-opacity="0.25"/>
  <circle cx="200" cy="240" r="44.2" fill="none" stroke="#fbbf24" stroke-width="0.6" stroke-opacity="0.22"/>
  <line x1="358.0" y1="240.0" x2="346.0" y2="240.0" stroke="#fbbf24" stroke-width="0.9" stroke-opacity="0.22"/>
  <line x1="336.8" y1="319.0" x2="326.4" y2="313.0" stroke="#fbbf24" stroke-width="0.9" stroke-opacity="0.22"/>
  <line x1="279.0" y1="376.8" x2="273.0" y2="366.4" stroke="#fbbf24" stroke-width="0.9" stroke-opacity="0.22"/>
  <line x1="200.0" y1="398.0" x2="200.0" y2="386.0" stroke="#fbbf24" stroke-width="0.9" stroke-opacity="0.22"/>
  <line x1="121.0" y1="376.8" x2="127.0" y2="366.4" stroke="#fbbf24" stroke-width="0.9" stroke-opacity="0.22"/>
  <line x1="63.2" y1="319.0" x2="73.6" y2="313.0" stroke="#fbbf24" stroke-width="0.9" stroke-opacity="0.22"/>
  <line x1="42.0" y1="240.0" x2="54.0" y2="240.0" stroke="#fbbf24" stroke-width="0.9" stroke-opacity="0.22"/>
  <line x1="63.2" y1="161.0" x2="73.6" y2="167.0" stroke="#fbbf24" stroke-width="0.9" stroke-opacity="0.22"/>
  <line x1="121.0" y1="103.2" x2="127.0" y2="113.6" stroke="#fbbf24" stroke-width="0.9" stroke-opacity="0.22"/>
  <line x1="200.0" y1="82.0" x2="200.0" y2="94.0" stroke="#fbbf24" stroke-width="0.9" stroke-opacity="0.22"/>
  <line x1="279.0" y1="103.2" x2="273.0" y2="113.6" stroke="#fbbf24" stroke-width="0.9" stroke-opacity="0.22"/>
  <line x1="336.8" y1="161.0" x2="326.4" y2="167.0" stroke="#fbbf24" stroke-width="0.9" stroke-opacity="0.22"/>

  <!-- Center glow -->
  <rect width="400" height="500" fill="url(#glowedwardelric)"/>

  <!-- Ghost symbol (very large, nearly invisible) -->
  <text x="200" y="275" text-anchor="middle" dominant-baseline="middle"
    font-size="255" fill="#fbbf24" fill-opacity="0.038"
    font-family="'Segoe UI Symbol','Apple Color Emoji','Noto Sans Symbols2','Noto Sans Symbols',sans-serif"
  >&#x2295;</text>

  <!-- Halo behind symbol -->
  <ellipse cx="200" cy="252" rx="90" ry="90"
    fill="#fbbf24" fill-opacity="0.055" filter="url(#bluredwardelric)"/>

  <!-- Main symbol -->
  <text x="200" y="258" text-anchor="middle" dominant-baseline="middle"
    font-size="108" fill="#fbbf24" fill-opacity="0.84"
    font-family="'Segoe UI Symbol','Apple Color Emoji','Noto Sans Symbols2','Noto Sans Symbols',sans-serif"
  >&#x2295;</text>

  <!-- Divider -->
  <line x1="38" y1="372" x2="168" y2="372" stroke="#fbbf24" stroke-width="0.6" stroke-opacity="0.32"/>
  <circle cx="200" cy="372" r="2.6" fill="#fbbf24" fill-opacity="0.55"/>
  <line x1="232" y1="372" x2="362" y2="372" stroke="#fbbf24" stroke-width="0.6" stroke-opacity="0.32"/>

  <!-- Sigil text -->
  <text x="200" y="412" text-anchor="middle" dominant-baseline="middle"
    font-size="11" fill="#fbbf24" fill-opacity="0.52"
    font-family="'Courier New','JetBrains Mono','Lucida Console',monospace"
    letter-spacing="5"
  >F U L L M E T A L</text>
</svg>