<svg xmlns="http://www.w3.org/2000/svg" viewBox="0 0 400 500" width="400" height="500">
  <defs>
    <radialGradient id="bggeorgewashington" cx="200" cy="190" r="320" gradientUnits="userSpaceOnUse">
      <stop offset="0%" stop-color="#0d1830"/>
      <stop offset="100%" stop-color="#030610"/>
    </radialGradient>
    <radialGradient id="glowgeorgewashington" cx="200" cy="240" r="210" gradientUnits="userSpaceOnUse">
      <stop offset="0%" stop-color="#94a3b8" stop-opacity="0.14"/>
      <stop offset="100%" stop-color="#94a3b8" stop-opacity="0"/>
    </radialGradient>
    <filter id="blurgeorgewashington" x="-50%" y="-50%" width="200%" height="200%">
      <feGaussianBlur stdDeviation="10"/>
    </filter>
  </defs>

  <!-- Background -->
  <rect width="400" height="500" fill="#030610"/>
  <rect width="400" height="500" fill="url(#bggeorgewashington)"/>

  <!-- Character decoration -->
  <polygon points="200.0,59.0 202.4,63.8 207.6,64.5 203.8,68.2 204.7,73.5 200.0,71.0 195.3,73.5 196.2,68.2 192.4,64.5 197.6,63.8" fill="#94a3b8" fill-opacity="0.28" stroke="#94a3b8" stroke-width="0.4" stroke-opacity="0.4"/>
  <polygon points="259.5,73.7 261.8,78.4 267.1,79.2 263.3,82.9 264.2,88.1 259.5,85.7 254.8,88.1 255.7,82.9 251.9,79.2 257.1,78.4" fill="#94a3b8" fill-opacity="0.28" stroke="#94a3b8" stroke-width="0.4" stroke-opacity="0.4"/>
  <polygon points="305.3,114.3 307.7,119.1 313.0,119.8 309.1,123.5 310.0,128.8 305.3,126.3 300.6,128.8 301.5,123.5 297.7,119.8 303.0,119.1" fill="#94a3b8" fill-opacity="0.28" stroke="#94a3b8" stroke-width="0.4" stroke-opacity="0.4"/>
  <polygon points="327.1,171.6 329.4,176.3 334.7,177.1 330.9,180.8 331.8,186.0 327.1,183.6 322.4,186.0 323.3,180.8 319.5,177.1 324.7,176.3" fill="#94a3b8" fill-opacity="0.28" stroke="#94a3b8" stroke-width="0.4" stroke-opacity="0.4"/>
  <polygon points="319.7,232.4 322.0,237.2 327.3,237.9 323.5,241.6 324.4,246.9 319.7,244.4 315.0,246.9 315.9,241.6 312.1,237.9 317.3,237.2" fill="#94a3b8" fill-opacity="0.28" stroke="#94a3b8" stroke-width="0.4" stroke-opacity="0.4"/>
  <polygon points="284.9,282.8 287.2,287.6 292.5,288.3 288.7,292.0 289.6,297.3 284.9,294.8 280.2,297.3 281.1,292.0 277.3,288.3 282.5,287.6" fill="#94a3b8" fill-opacity="0.28" stroke="#94a3b8" stroke-width="0.4" stroke-opacity="0.4"/>
  <polygon points="230.6,311.3 233.0,316.0 238.2,316.8 234.4,320.5 235.3,325.8 230.6,323.3 225.9,325.8 226.8,320.5 223.0,316.8 228.3,316.0" fill="#94a3b8" fill-opacity="0.28" stroke="#94a3b8" stroke-width="0.4" stroke-opacity="0.4"/>
  <polygon points="169.4,311.3 171.7,316.0 177.0,316.8 173.2,320.5 174.1,325.8 169.4,323.3 164.7,325.8 165.6,320.5 161.8,316.8 167.0,316.0" fill="#94a3b8" fill-opacity="0.28" stroke="#94a3b8" stroke-width="0.4" stroke-opacity="0.4"/>
  <polygon points="115.1,282.8 117.5,287.6 122.7,288.3 118.9,292.0 119.8,297.3 115.1,294.8 110.4,297.3 111.3,292.0 107.5,288.3 112.8,287.6" fill="#94a3b8" fill-opacity="0.28" stroke="#94a3b8" stroke-width="0.4" stroke-opacity="0.4"/>
  <polygon points="80.3,232.4 82.7,237.2 87.9,237.9 84.1,241.6 85.0,246.9 80.3,244.4 75.6,246.9 76.5,241.6 72.7,237.9 78.0,237.2" fill="#94a3b8" fill-opacity="0.28" stroke="#94a3b8" stroke-width="0.4" stroke-opacity="0.4"/>
  <polygon points="72.9,171.6 75.3,176.3 80.5,177.1 76.7,180.8 77.6,186.0 72.9,183.6 68.2,186.0 69.1,180.8 65.3,177.1 70.6,176.3" fill="#94a3b8" fill-opacity="0.28" stroke="#94a3b8" stroke-width="0.4" stroke-opacity="0.4"/>
  <polygon points="94.7,114.3 97.0,119.1 102.3,119.8 98.5,123.5 99.4,128.8 94.7,126.3 90.0,128.8 90.9,123.5 87.0,119.8 92.3,119.1" fill="#94a3b8" fill-opacity="0.28" stroke="#94a3b8" stroke-width="0.4" stroke-opacity="0.4"/>
  <polygon points="140.5,73.7 142.9,78.4 148.1,79.2 144.3,82.9 145.2,88.1 140.5,85.7 135.8,88.1 136.7,82.9 132.9,79.2 138.2,78.4" fill="#94a3b8" fill-opacity="0.28" stroke="#94a3b8" stroke-width="0.4" stroke-opacity="0.4"/>
  <path d="M70,305 Q140,182 200,245 Q260,182 330,305" fill="none" stroke="#94a3b8" stroke-width="0.8" stroke-opacity="0.15"/>
  <path d="M82,322 Q148,202 200,260 Q252,202 318,322" fill="none" stroke="#94a3b8" stroke-width="0.5" stroke-opacity="0.1"/>
  <circle cx="200" cy="195" r="22" fill="none" stroke="#94a3b8" stroke-width="0.8" stroke-opacity="0.28"/>

  <!-- Center glow -->
  <rect width="400" height="500" fill="url(#glowgeorgewashington)"/>

  <!-- Ghost symbol (very large, nearly invisible) -->
  <text x="200" y="275" text-anchor="middle" dominant-baseline="middle"
    font-size="255" fill="#94a3b8" fill-opacity="0.038"
    font-family="'Segoe UI Symbol','Apple Color Emoji','Noto Sans Symbols2','Noto Sans Symbols',sans-serif"
  >&#x229B;</text>

  <!-- Halo behind symbol -->
  <ellipse cx="200" cy="252" rx="90" ry="90"
    fill="#94a3b8" fill-opacity="0.055" filter="url(#blurgeorgewashington)"/>

  <!-- Main symbol -->
  <text x="200" y="258" text-anchor="middle" dominant-baseline="middle"
    font-size="108" fill="#94a3b8" fill-opacity="0.84"
    font-family="'Segoe UI Symbol','Apple Color Emoji','Noto Sans Symbols2','Noto Sans Symbols',sans-serif"
  >&#x229B;</text>

  <!-- Divider -->
  <line x1="38" y1="372" x2="168" y2="372" stroke="#94a3b8" stroke-width="0.6" stroke-opacity="0.32"/>
  <circle cx="200" cy="372" r="2.6" fill="#94a3b8" fill-opacity="0.55"/>
  <line x1="232" y1="372" x2="362" y2="372" stroke="#94a3b8" stroke-width="0.6" stroke-opacity="0.32"/>

  <!-- Sigil text -->
  <text x="200" y="412" text-anchor="middle" dominant-baseline="middle"
    font-size="11" fill="#94a3b8" fill-opacity="0.52"
    font-family="'Courier New','JetBrains Mono','Lucida Console',monospace"
    letter-spacing="5"
  >P R E S I D E N T</text>
</svg>