<svg xmlns="http://www.w3.org/2000/svg" viewBox="0 0 400 500" width="400" height="500">
  <defs>
    <radialGradient id="bggilgamesh" cx="200" cy="190" r="320" gradientUnits="userSpaceOnUse">
      <stop offset="0%" stop-color="#2d1800"/>
      <stop offset="100%" stop-color="#120a00"/>
    </radialGradient>
    <radialGradient id="glowgilgamesh" cx="200" cy="240" r="210" gradientUnits="userSpaceOnUse">
      <stop offset="0%" stop-color="#fbbf24" stop-opacity="0.14"/>
      <stop offset="100%" stop-color="#fbbf24" stop-opacity="0"/>
    </radialGradient>
    <filter id="blurgilgamesh" x="-50%" y="-50%" width="200%" height="200%">
      <feGaussianBlur stdDeviation="10"/>
    </filter>
  </defs>

  <!-- Background -->
  <rect width="400" height="500" fill="#120a00"/>
  <rect width="400" height="500" fill="url(#bggilgamesh)"/>

  <!-- Character decoration -->
  <polygon points="72.5,86.5 98.5,112.5 72.5,138.5 46.5,112.5" fill="none" stroke="#fbbf24" stroke-width="0.6" stroke-opacity="0.12"/>
  <polygon points="157.5,86.5 183.5,112.5 157.5,138.5 131.5,112.5" fill="none" stroke="#fbbf24" stroke-width="0.6" stroke-opacity="0.12"/>
  <polygon points="242.5,86.5 268.5,112.5 242.5,138.5 216.5,112.5" fill="none" stroke="#fbbf24" stroke-width="0.6" stroke-opacity="0.12"/>
  <polygon points="327.5,86.5 353.5,112.5 327.5,138.5 301.5,112.5" fill="none" stroke="#fbbf24" stroke-width="0.6" stroke-opacity="0.12"/>
  <polygon points="72.5,171.5 98.5,197.5 72.5,223.5 46.5,197.5" fill="none" stroke="#fbbf24" stroke-width="0.6" stroke-opacity="0.2"/>
  <polygon points="157.5,171.5 183.5,197.5 157.5,223.5 131.5,197.5" fill="none" stroke="#fbbf24" stroke-width="0.6" stroke-opacity="0.2"/>
  <polygon points="242.5,171.5 268.5,197.5 242.5,223.5 216.5,197.5" fill="none" stroke="#fbbf24" stroke-width="0.6" stroke-opacity="0.2"/>
  <polygon points="327.5,171.5 353.5,197.5 327.5,223.5 301.5,197.5" fill="none" stroke="#fbbf24" stroke-width="0.6" stroke-opacity="0.2"/>
  <polygon points="72.5,256.5 98.5,282.5 72.5,308.5 46.5,282.5" fill="none" stroke="#fbbf24" stroke-width="0.6" stroke-opacity="0.2"/>
  <polygon points="157.5,256.5 183.5,282.5 157.5,308.5 131.5,282.5" fill="none" stroke="#fbbf24" stroke-width="0.6" stroke-opacity="0.2"/>
  <polygon points="242.5,256.5 268.5,282.5 242.5,308.5 216.5,282.5" fill="none" stroke="#fbbf24" stroke-width="0.6" stroke-opacity="0.2"/>
  <polygon points="327.5,256.5 353.5,282.5 327.5,308.5 301.5,282.5" fill="none" stroke="#fbbf24" stroke-width="0.6" stroke-opacity="0.2"/>
  <polygon points="72.5,341.5 98.5,367.5 72.5,393.5 46.5,367.5" fill="none" stroke="#fbbf24" stroke-width="0.6" stroke-opacity="0.12"/>
  <polygon points="157.5,341.5 183.5,367.5 157.5,393.5 131.5,367.5" fill="none" stroke="#fbbf24" stroke-width="0.6" stroke-opacity="0.12"/>
  <polygon points="242.5,341.5 268.5,367.5 242.5,393.5 216.5,367.5" fill="none" stroke="#fbbf24" stroke-width="0.6" stroke-opacity="0.12"/>
  <polygon points="327.5,341.5 353.5,367.5 327.5,393.5 301.5,367.5" fill="none" stroke="#fbbf24" stroke-width="0.6" stroke-opacity="0.12"/>

  <!-- Center glow -->
  <rect width="400" height="500" fill="url(#glowgilgamesh)"/>

  <!-- Ghost symbol (very large, nearly invisible) -->
  <text x="200" y="275" text-anchor="middle" dominant-baseline="middle"
    font-size="255" fill="#fbbf24" fill-opacity="0.038"
    font-family="'Segoe UI Symbol','Apple Color Emoji','Noto Sans Symbols2','Noto Sans Symbols',sans-serif"
  >&#x265B;</text>

  <!-- Halo behind symbol -->
  <ellipse cx="200" cy="252" rx="90" ry="90"
    fill="#fbbf24" fill-opacity="0.055" filter="url(#blurgilgamesh)"/>

  <!-- Main symbol -->
  <text x="200" y="258" text-anchor="middle" dominant-baseline="middle"
    font-size="108" fill="#fbbf24" fill-opacity="0.84"
    font-family="'Segoe UI Symbol','Apple Color Emoji','Noto Sans Symbols2','Noto Sans Symbols',sans-serif"
  >&#x265B;</text>

  <!-- Divider -->
  <line x1="38" y1="372" x2="168" y2="372" stroke="#fbbf24" stroke-width="0.6" stroke-opacity="0.32"/>
  <circle cx="200" cy="372" r="2.6" fill="#fbbf24" fill-opacity="0.55"/>
  <line x1="232" y1="372" x2="362" y2="372" stroke="#fbbf24" stroke-width="0.6" stroke-opacity="0.32"/>

  <!-- Sigil text -->
  <text x="200" y="412" text-anchor="middle" dominant-baseline="middle"
    font-size="11" fill="#fbbf24" fill-opacity="0.52"
    font-family="'Courier New','JetBrains Mono','Lucida Console',monospace"
    letter-spacing="5"
  >K I N G</text>
</svg>