<svg xmlns="http://www.w3.org/2000/svg" viewBox="0 0 400 500" width="400" height="500">
  <defs>
    <radialGradient id="bglevi" cx="200" cy="190" r="320" gradientUnits="userSpaceOnUse">
      <stop offset="0%" stop-color="#122020"/>
      <stop offset="100%" stop-color="#040d0d"/>
    </radialGradient>
    <radialGradient id="glowlevi" cx="200" cy="240" r="210" gradientUnits="userSpaceOnUse">
      <stop offset="0%" stop-color="#6ee7b7" stop-opacity="0.14"/>
      <stop offset="100%" stop-color="#6ee7b7" stop-opacity="0"/>
    </radialGradient>
    <filter id="blurlevi" x="-50%" y="-50%" width="200%" height="200%">
      <feGaussianBlur stdDeviation="10"/>
    </filter>
  </defs>

  <!-- Background -->
  <rect width="400" height="500" fill="#040d0d"/>
  <rect width="400" height="500" fill="url(#bglevi)"/>

  <!-- Character decoration -->
  <line x1="-500" y1="0" x2="0" y2="500" stroke="#6ee7b7" stroke-width="0.45" stroke-opacity="0.07"/>
  <line x1="-472" y1="0" x2="28" y2="500" stroke="#6ee7b7" stroke-width="0.45" stroke-opacity="0.07"/>
  <line x1="-444" y1="0" x2="56" y2="500" stroke="#6ee7b7" stroke-width="0.45" stroke-opacity="0.07"/>
  <line x1="-416" y1="0" x2="84" y2="500" stroke="#6ee7b7" stroke-width="0.45" stroke-opacity="0.07"/>
  <line x1="-388" y1="0" x2="112" y2="500" stroke="#6ee7b7" stroke-width="0.45" stroke-opacity="0.07"/>
  <line x1="-360" y1="0" x2="140" y2="500" stroke="#6ee7b7" stroke-width="0.45" stroke-opacity="0.07"/>
  <line x1="-332" y1="0" x2="168" y2="500" stroke="#6ee7b7" stroke-width="0.45" stroke-opacity="0.07"/>
  <line x1="-304" y1="0" x2="196" y2="500" stroke="#6ee7b7" stroke-width="0.45" stroke-opacity="0.07"/>
  <line x1="-276" y1="0" x2="224" y2="500" stroke="#6ee7b7" stroke-width="0.45" stroke-opacity="0.07"/>
  <line x1="-248" y1="0" x2="252" y2="500" stroke="#6ee7b7" stroke-width="0.45" stroke-opacity="0.07"/>
  <line x1="-220" y1="0" x2="280" y2="500" stroke="#6ee7b7" stroke-width="0.45" stroke-opacity="0.07"/>
  <line x1="-192" y1="0" x2="308" y2="500" stroke="#6ee7b7" stroke-width="0.45" stroke-opacity="0.07"/>
  <line x1="-164" y1="0" x2="336" y2="500" stroke="#6ee7b7" stroke-width="0.45" stroke-opacity="0.07"/>
  <line x1="-136" y1="0" x2="364" y2="500" stroke="#6ee7b7" stroke-width="0.45" stroke-opacity="0.07"/>
  <line x1="-108" y1="0" x2="392" y2="500" stroke="#6ee7b7" stroke-width="0.45" stroke-opacity="0.07"/>
  <line x1="-80" y1="0" x2="420" y2="500" stroke="#6ee7b7" stroke-width="0.45" stroke-opacity="0.07"/>
  <line x1="-52" y1="0" x2="448" y2="500" stroke="#6ee7b7" stroke-width="0.45" stroke-opacity="0.07"/>
  <line x1="-24" y1="0" x2="476" y2="500" stroke="#6ee7b7" stroke-width="0.45" stroke-opacity="0.07"/>
  <line x1="4" y1="0" x2="504" y2="500" stroke="#6ee7b7" stroke-width="0.45" stroke-opacity="0.07"/>
  <line x1="32" y1="0" x2="532" y2="500" stroke="#6ee7b7" stroke-width="0.45" stroke-opacity="0.07"/>
  <line x1="60" y1="0" x2="560" y2="500" stroke="#6ee7b7" stroke-width="0.45" stroke-opacity="0.07"/>
  <line x1="88" y1="0" x2="588" y2="500" stroke="#6ee7b7" stroke-width="0.45" stroke-opacity="0.07"/>
  <line x1="116" y1="0" x2="616" y2="500" stroke="#6ee7b7" stroke-width="0.45" stroke-opacity="0.07"/>
  <line x1="144" y1="0" x2="644" y2="500" stroke="#6ee7b7" stroke-width="0.45" stroke-opacity="0.07"/>
  <line x1="172" y1="0" x2="672" y2="500" stroke="#6ee7b7" stroke-width="0.45" stroke-opacity="0.07"/>
  <line x1="200" y1="0" x2="700" y2="500" stroke="#6ee7b7" stroke-width="0.45" stroke-opacity="0.07"/>
  <line x1="228" y1="0" x2="728" y2="500" stroke="#6ee7b7" stroke-width="0.45" stroke-opacity="0.07"/>
  <line x1="256" y1="0" x2="756" y2="500" stroke="#6ee7b7" stroke-width="0.45" stroke-opacity="0.07"/>
  <line x1="284" y1="0" x2="784" y2="500" stroke="#6ee7b7" stroke-width="0.45" stroke-opacity="0.07"/>
  <line x1="312" y1="0" x2="812" y2="500" stroke="#6ee7b7" stroke-width="0.45" stroke-opacity="0.07"/>
  <line x1="340" y1="0" x2="840" y2="500" stroke="#6ee7b7" stroke-width="0.45" stroke-opacity="0.07"/>
  <line x1="368" y1="0" x2="868" y2="500" stroke="#6ee7b7" stroke-width="0.45" stroke-opacity="0.07"/>
  <line x1="396" y1="0" x2="896" y2="500" stroke="#6ee7b7" stroke-width="0.45" stroke-opacity="0.07"/>
  <line x1="424" y1="0" x2="924" y2="500" stroke="#6ee7b7" stroke-width="0.45" stroke-opacity="0.07"/>
  <line x1="452" y1="0" x2="952" y2="500" stroke="#6ee7b7" stroke-width="0.45" stroke-opacity="0.07"/>
  <line x1="480" y1="0" x2="980" y2="500" stroke="#6ee7b7" stroke-width="0.45" stroke-opacity="0.07"/>
  <line x1="508" y1="0" x2="1008" y2="500" stroke="#6ee7b7" stroke-width="0.45" stroke-opacity="0.07"/>
  <line x1="536" y1="0" x2="1036" y2="500" stroke="#6ee7b7" stroke-width="0.45" stroke-opacity="0.07"/>
  <line x1="564" y1="0" x2="1064" y2="500" stroke="#6ee7b7" stroke-width="0.45" stroke-opacity="0.07"/>
  <line x1="592" y1="0" x2="1092" y2="500" stroke="#6ee7b7" stroke-width="0.45" stroke-opacity="0.07"/>
  <line x1="620" y1="0" x2="1120" y2="500" stroke="#6ee7b7" stroke-width="0.45" stroke-opacity="0.07"/>
  <line x1="648" y1="0" x2="1148" y2="500" stroke="#6ee7b7" stroke-width="0.45" stroke-opacity="0.07"/>
  <line x1="676" y1="0" x2="1176" y2="500" stroke="#6ee7b7" stroke-width="0.45" stroke-opacity="0.07"/>
  <line x1="704" y1="0" x2="1204" y2="500" stroke="#6ee7b7" stroke-width="0.45" stroke-opacity="0.07"/>
  <line x1="732" y1="0" x2="1232" y2="500" stroke="#6ee7b7" stroke-width="0.45" stroke-opacity="0.07"/>
  <line x1="760" y1="0" x2="1260" y2="500" stroke="#6ee7b7" stroke-width="0.45" stroke-opacity="0.07"/>
  <line x1="788" y1="0" x2="1288" y2="500" stroke="#6ee7b7" stroke-width="0.45" stroke-opacity="0.07"/>
  <line x1="816" y1="0" x2="1316" y2="500" stroke="#6ee7b7" stroke-width="0.45" stroke-opacity="0.07"/>
  <line x1="844" y1="0" x2="1344" y2="500" stroke="#6ee7b7" stroke-width="0.45" stroke-opacity="0.07"/>
  <line x1="872" y1="0" x2="1372" y2="500" stroke="#6ee7b7" stroke-width="0.45" stroke-opacity="0.07"/>
  <line x1="-500" y1="500" x2="0" y2="0" stroke="#6ee7b7" stroke-width="0.45" stroke-opacity="0.07"/>
  <line x1="-472" y1="500" x2="28" y2="0" stroke="#6ee7b7" stroke-width="0.45" stroke-opacity="0.07"/>
  <line x1="-444" y1="500" x2="56" y2="0" stroke="#6ee7b7" stroke-width="0.45" stroke-opacity="0.07"/>
  <line x1="-416" y1="500" x2="84" y2="0" stroke="#6ee7b7" stroke-width="0.45" stroke-opacity="0.07"/>
  <line x1="-388" y1="500" x2="112" y2="0" stroke="#6ee7b7" stroke-width="0.45" stroke-opacity="0.07"/>
  <line x1="-360" y1="500" x2="140" y2="0" stroke="#6ee7b7" stroke-width="0.45" stroke-opacity="0.07"/>
  <line x1="-332" y1="500" x2="168" y2="0" stroke="#6ee7b7" stroke-width="0.45" stroke-opacity="0.07"/>
  <line x1="-304" y1="500" x2="196" y2="0" stroke="#6ee7b7" stroke-width="0.45" stroke-opacity="0.07"/>
  <line x1="-276" y1="500" x2="224" y2="0" stroke="#6ee7b7" stroke-width="0.45" stroke-opacity="0.07"/>
  <line x1="-248" y1="500" x2="252" y2="0" stroke="#6ee7b7" stroke-width="0.45" stroke-opacity="0.07"/>
  <line x1="-220" y1="500" x2="280" y2="0" stroke="#6ee7b7" stroke-width="0.45" stroke-opacity="0.07"/>
  <line x1="-192" y1="500" x2="308" y2="0" stroke="#6ee7b7" stroke-width="0.45" stroke-opacity="0.07"/>
  <line x1="-164" y1="500" x2="336" y2="0" stroke="#6ee7b7" stroke-width="0.45" stroke-opacity="0.07"/>
  <line x1="-136" y1="500" x2="364" y2="0" stroke="#6ee7b7" stroke-width="0.45" stroke-opacity="0.07"/>
  <line x1="-108" y1="500" x2="392" y2="0" stroke="#6ee7b7" stroke-width="0.45" stroke-opacity="0.07"/>
  <line x1="-80" y1="500" x2="420" y2="0" stroke="#6ee7b7" stroke-width="0.45" stroke-opacity="0.07"/>
  <line x1="-52" y1="500" x2="448" y2="0" stroke="#6ee7b7" stroke-width="0.45" stroke-opacity="0.07"/>
  <line x1="-24" y1="500" x2="476" y2="0" stroke="#6ee7b7" stroke-width="0.45" stroke-opacity="0.07"/>
  <line x1="4" y1="500" x2="504" y2="0" stroke="#6ee7b7" stroke-width="0.45" stroke-opacity="0.07"/>
  <line x1="32" y1="500" x2="532" y2="0" stroke="#6ee7b7" stroke-width="0.45" stroke-opacity="0.07"/>
  <line x1="60" y1="500" x2="560" y2="0" stroke="#6ee7b7" stroke-width="0.45" stroke-opacity="0.07"/>
  <line x1="88" y1="500" x2="588" y2="0" stroke="#6ee7b7" stroke-width="0.45" stroke-opacity="0.07"/>
  <line x1="116" y1="500" x2="616" y2="0" stroke="#6ee7b7" stroke-width="0.45" stroke-opacity="0.07"/>
  <line x1="144" y1="500" x2="644" y2="0" stroke="#6ee7b7" stroke-width="0.45" stroke-opacity="0.07"/>
  <line x1="172" y1="500" x2="672" y2="0" stroke="#6ee7b7" stroke-width="0.45" stroke-opacity="0.07"/>
  <line x1="200" y1="500" x2="700" y2="0" stroke="#6ee7b7" stroke-width="0.45" stroke-opacity="0.07"/>
  <line x1="228" y1="500" x2="728" y2="0" stroke="#6ee7b7" stroke-width="0.45" stroke-opacity="0.07"/>
  <line x1="256" y1="500" x2="756" y2="0" stroke="#6ee7b7" stroke-width="0.45" stroke-opacity="0.07"/>
  <line x1="284" y1="500" x2="784" y2="0" stroke="#6ee7b7" stroke-width="0.45" stroke-opacity="0.07"/>
  <line x1="312" y1="500" x2="812" y2="0" stroke="#6ee7b7" stroke-width="0.45" stroke-opacity="0.07"/>
  <line x1="340" y1="500" x2="840" y2="0" stroke="#6ee7b7" stroke-width="0.45" stroke-opacity="0.07"/>
  <line x1="368" y1="500" x2="868" y2="0" stroke="#6ee7b7" stroke-width="0.45" stroke-opacity="0.07"/>
  <line x1="396" y1="500" x2="896" y2="0" stroke="#6ee7b7" stroke-width="0.45" stroke-opacity="0.07"/>
  <line x1="424" y1="500" x2="924" y2="0" stroke="#6ee7b7" stroke-width="0.45" stroke-opacity="0.07"/>
  <line x1="452" y1="500" x2="952" y2="0" stroke="#6ee7b7" stroke-width="0.45" stroke-opacity="0.07"/>
  <line x1="480" y1="500" x2="980" y2="0" stroke="#6ee7b7" stroke-width="0.45" stroke-opacity="0.07"/>
  <line x1="508" y1="500" x2="1008" y2="0" stroke="#6ee7b7" stroke-width="0.45" stroke-opacity="0.07"/>
  <line x1="536" y1="500" x2="1036" y2="0" stroke="#6ee7b7" stroke-width="0.45" stroke-opacity="0.07"/>
  <line x1="564" y1="500" x2="1064" y2="0" stroke="#6ee7b7" stroke-width="0.45" stroke-opacity="0.07"/>
  <line x1="592" y1="500" x2="1092" y2="0" stroke="#6ee7b7" stroke-width="0.45" stroke-opacity="0.07"/>
  <line x1="620" y1="500" x2="1120" y2="0" stroke="#6ee7b7" stroke-width="0.45" stroke-opacity="0.07"/>
  <line x1="648" y1="500" x2="1148" y2="0" stroke="#6ee7b7" stroke-width="0.45" stroke-opacity="0.07"/>
  <line x1="676" y1="500" x2="1176" y2="0" stroke="#6ee7b7" stroke-width="0.45" stroke-opacity="0.07"/>
  <line x1="704" y1="500" x2="1204" y2="0" stroke="#6ee7b7" stroke-width="0.45" stroke-opacity="0.07"/>
  <line x1="732" y1="500" x2="1232" y2="0" stroke="#6ee7b7" stroke-width="0.45" stroke-opacity="0.07"/>
  <line x1="760" y1="500" x2="1260" y2="0" stroke="#6ee7b7" stroke-width="0.45" stroke-opacity="0.07"/>
  <line x1="788" y1="500" x2="1288" y2="0" stroke="#6ee7b7" stroke-width="0.45" stroke-opacity="0.07"/>
  <line x1="816" y1="500" x2="1316" y2="0" stroke="#6ee7b7" stroke-width="0.45" stroke-opacity="0.07"/>
  <line x1="844" y1="500" x2="1344" y2="0" stroke="#6ee7b7" stroke-width="0.45" stroke-opacity="0.07"/>
  <line x1="872" y1="500" x2="1372" y2="0" stroke="#6ee7b7" stroke-width="0.45" stroke-opacity="0.07"/>

  <!-- Center glow -->
  <rect width="400" height="500" fill="url(#glowlevi)"/>

  <!-- Ghost symbol (very large, nearly invisible) -->
  <text x="200" y="275" text-anchor="middle" dominant-baseline="middle"
    font-size="255" fill="#6ee7b7" fill-opacity="0.038"
    font-family="'Segoe UI Symbol','Apple Color Emoji','Noto Sans Symbols2','Noto Sans Symbols',sans-serif"
  >&#x2716;</text>

  <!-- Halo behind symbol -->
  <ellipse cx="200" cy="252" rx="90" ry="90"
    fill="#6ee7b7" fill-opacity="0.055" filter="url(#blurlevi)"/>

  <!-- Main symbol -->
  <text x="200" y="258" text-anchor="middle" dominant-baseline="middle"
    font-size="108" fill="#6ee7b7" fill-opacity="0.84"
    font-family="'Segoe UI Symbol','Apple Color Emoji','Noto Sans Symbols2','Noto Sans Symbols',sans-serif"
  >&#x2716;</text>

  <!-- Divider -->
  <line x1="38" y1="372" x2="168" y2="372" stroke="#6ee7b7" stroke-width="0.6" stroke-opacity="0.32"/>
  <circle cx="200" cy="372" r="2.6" fill="#6ee7b7" fill-opacity="0.55"/>
  <line x1="232" y1="372" x2="362" y2="372" stroke="#6ee7b7" stroke-width="0.6" stroke-opacity="0.32"/>

  <!-- Sigil text -->
  <text x="200" y="412" text-anchor="middle" dominant-baseline="middle"
    font-size="11" fill="#6ee7b7" fill-opacity="0.52"
    font-family="'Courier New','JetBrains Mono','Lucida Console',monospace"
    letter-spacing="5"
  >S U R V E Y</text>
</svg>